<?xml version="1.0" encoding="UTF-8"?>
<!DOCTYPE svg PUBLIC "-//W3C//DTD SVG 1.1//EN" "http://www.w3.org/Graphics/SVG/1.1/DTD/svg11.dtd">
<!-- Creator: CorelDRAW X6 -->
<svg xmlns="http://www.w3.org/2000/svg" xml:space="preserve" width="147.461mm" height="95.8423mm" version="1.1" style="shape-rendering:geometricPrecision; text-rendering:geometricPrecision; image-rendering:optimizeQuality; fill-rule:evenodd; clip-rule:evenodd"
viewBox="0 0 22518 14635"
 xmlns:xlink="http://www.w3.org/1999/xlink">
 <defs>
  <style type="text/css">
   <![CDATA[
    .fil0 {fill:#FEFEFE}
   ]]>
  </style>
 </defs>
 <g id="Vrstva_x0020_1">
  <metadata id="CorelCorpID_0Corel-Layer"/>
  <g id="_110576368">
   <path class="fil0" d="M10596 0c-166,361 -380,725 -729,1097 -175,172 -252,398 -232,678 -472,-264 -937,-574 -1384,-984 165,220 270,471 314,751 -485,-437 -1039,-750 -1694,-883 -595,-59 -1174,-184 -1721,-437 217,256 126,626 223,920 231,606 1058,1006 1006,1844 -903,-853 -1952,-686 -2955,-1248 37,646 159,1303 451,1985 -346,-65 -625,-4 -874,114 233,250 438,589 610,1034 -491,-151 -903,-260 -1458,43 -556,303 -1465,312 -2153,972 1136,137 2106,543 2878,1275 -340,140 -634,657 -1102,624 99,219 313,395 606,542 -812,471 -877,1702 -1603,2586 2389,880 2669,-306 3579,-269 -243,289 -324,607 -360,933 468,-178 1006,-237 1644,-123 146,1124 210,1790 1061,3101 -151,-938 379,-1798 1257,-2609 277,322 492,739 722,1104 342,541 761,958 994,1528 360,-713 624,-798 1134,-1266 228,-241 401,-615 615,-724 135,596 269,1189 660,1576 58,-375 135,-710 241,-988 858,504 1547,420 2627,1457 -16,-1041 -275,-1762 -738,-2240 378,191 761,370 1088,674 -25,-477 -85,-907 -269,-1166 1057,602 2123,1138 3301,897 -1248,-938 -729,-1571 -1571,-2158 1403,-121 2882,-885 3798,-433 -582,-1134 -1956,-1235 -2204,-1416 522,-33 941,-158 1257,-373 -300,-183 -591,-373 -842,-592 420,-409 1117,-71 1671,-127 1420,-173 1387,-785 2072,-1056 -3093,-671 -2075,-1765 -4403,-1999 638,-556 1043,-1394 1093,-1621 -884,365 -1837,457 -2928,9 574,-323 1065,-707 1421,-1188 -1935,800 -1539,-427 -3688,515 -368,-590 -368,-1181 77,-1771 -1078,108 -1755,514 -2067,1193 -575,-575 -786,115 -1425,-1780zm-5058 646c260,1011 1415,1138 969,2908 -650,-1008 -2069,-1057 -2739,-1254 -67,1099 783,1566 938,2349 -542,-452 -1004,-710 -1349,-685l780 1401c-861,-336 -1643,-427 -2023,-181 -461,298 -623,273 -1390,560 1271,386 2149,899 2634,1538 -472,65 -845,297 -1148,643 371,111 644,248 706,442 -903,67 -1194,1672 -1791,2508 1236,608 2567,-618 3993,-706 -299,369 -660,653 -896,1106 512,-177 1040,-255 1580,-263 151,1149 326,2235 674,2876 123,-825 611,-1580 1464,-2265 309,365 608,857 932,1388 239,393 597,657 859,1078 275,-544 882,-793 979,-913 371,-464 464,-941 781,-952 200,390 284,906 474,1359 67,-418 81,-804 327,-1096 169,1043 1507,611 2465,1707 155,-734 -1282,-1795 -927,-2265 471,147 874,377 1233,664 -158,-500 -407,-1011 -790,-1538 1422,1064 2708,1538 3508,1601 -906,-808 -622,-1731 -1960,-2265 1054,151 2697,-572 4141,-527 -688,-548 -1545,-622 -2413,-1233 478,-246 955,-81 1433,-232 -448,-325 -858,-714 -1222,-1180 456,245 1171,108 1777,160 854,74 1653,197 2490,-624 -2223,-414 -2739,-2135 -4804,-1749 579,-497 1100,-1017 1538,-1570 -2083,643 -2184,-685 -3656,316 334,-576 362,-752 1981,-1475 -1184,302 -1651,-376 -3266,558 11,-808 -664,-1184 -158,-1949 -826,112 -1369,692 -1717,1591 -291,-941 -889,-565 -1412,-1749 -330,456 -1015,573 -411,2265 -293,-672 -701,-1172 -1275,-1422 57,275 80,561 53,864 -1868,-2135 -2651,-1384 -3361,-1791z"/>
   <path class="fil0" d="M10617 3205c712,0 1396,69 2038,196l0 1723 -4768 3806 0 1935c-2277,-631 -3860,-2028 -3860,-3650 0,-2214 2951,-4009 6589,-4009zm1131 2114l-2479 1979 0 -1904c398,-171 858,-268 1348,-268 403,0 786,66 1131,185l0 9zm-2479 3643l0 13c398,171 858,268 1348,268 403,0 786,-66 1131,-185l0 -2075 -2479 1979zm3945 -5433c2347,613 3992,2033 3992,3685 0,2214 -2951,4009 -6589,4009 -760,0 -1491,-79 -2170,-223l0 -1887 4768 -3806 0 -1779z"/>
  </g>
 </g>
</svg>
